<?xml version="1.0" encoding="UTF-8"?>
<svg id="_레이어_1" data-name="레이어 1" xmlns="http://www.w3.org/2000/svg" viewBox="0 0 1280 720">
  <defs>
    <style>
      .cls-1 {
        fill: #052030;
      }

      .cls-2 {
        fill: #006aba;
      }
    </style>
  </defs>
  <g>
    <path class="cls-2" d="M94.89,570.38h27.81v-57.67s-3.56,20.89-9.88,32.3c-8.03,14.5-17.93,25.37-17.93,25.37Z"/>
    <rect class="cls-1" x="121.59" y="507.61" width="2.24" height="74.79"/>
    <path class="cls-1" d="M160.72,596.57h-68.28c-.57,0-1.09-.3-1.38-.79l-8.63-14.84c-.62-1.06.15-2.4,1.38-2.4h85.54c1.23,0,2,1.34,1.38,2.4l-8.63,14.84c-.29.49-.81.79-1.38.79Z"/>
    <path class="cls-2" d="M131.37,569.46h17.2v-44.83s-2.11,19.77-7.52,29.96c-5.4,10.19-9.68,14.88-9.68,14.88Z"/>
    <rect class="cls-1" x="147.68" y="522.9" width="1.78" height="59.51"/>
  </g>
  <path class="cls-2" d="M206.08,570.38h24v-57.67s-3.07,20.89-8.52,32.3c-6.93,14.5-15.47,25.37-15.47,25.37Z"/>
  <rect class="cls-1" x="228.96" y="507.61" width="2.24" height="74.79"/>
  <path class="cls-1" d="M268.09,596.57h-68.28c-.57,0-1.09-.3-1.38-.79l-8.63-14.84c-.62-1.06.15-2.4,1.38-2.4h85.54c1.23,0,2,1.34,1.38,2.4l-8.63,14.84c-.29.49-.81.79-1.38.79Z"/>
  <path class="cls-2" d="M241.4,569.46h14.53v-44.83s-1.79,19.77-6.35,29.96c-4.57,10.19-8.18,14.88-8.18,14.88Z"/>
  <rect class="cls-1" x="255.05" y="522.9" width="1.78" height="59.51"/>
  <path class="cls-2" d="M316.64,570.38h20.81v-57.67s-2.66,20.89-7.39,32.3c-6.01,14.5-13.42,25.37-13.42,25.37Z"/>
  <rect class="cls-1" x="336.33" y="507.61" width="2.24" height="74.79"/>
  <path class="cls-1" d="M375.47,596.57h-68.28c-.57,0-1.09-.3-1.38-.79l-8.63-14.84c-.62-1.06.15-2.4,1.38-2.4h85.54c1.23,0,2,1.34,1.38,2.4l-8.63,14.84c-.29.49-.81.79-1.38.79Z"/>
  <path class="cls-2" d="M351.97,569.46h11.35v-44.83s-1.39,19.77-4.96,29.96c-3.57,10.19-6.39,14.88-6.39,14.88Z"/>
  <rect class="cls-1" x="362.42" y="522.9" width="1.78" height="59.51"/>
  <path class="cls-2" d="M428.28,570.38h16.54v-57.67s-2.12,20.89-5.88,32.3c-4.78,14.5-10.67,25.37-10.67,25.37Z"/>
  <rect class="cls-1" x="443.71" y="507.61" width="2.24" height="74.79"/>
  <path class="cls-1" d="M482.84,596.57h-68.28c-.57,0-1.09-.3-1.38-.79l-8.63-14.84c-.62-1.06.15-2.4,1.38-2.4h85.54c1.23,0,2,1.34,1.38,2.4l-8.63,14.84c-.29.49-.81.79-1.38.79Z"/>
  <path class="cls-2" d="M460.1,569.46h10.58v-44.83s-1.3,19.77-4.63,29.96c-3.33,10.19-5.96,14.88-5.96,14.88Z"/>
  <rect class="cls-1" x="469.79" y="522.9" width="1.78" height="59.51"/>
  <path class="cls-2" d="M539.11,570.38h13.08v-57.67s-1.68,20.89-4.65,32.3c-3.78,14.5-8.44,25.37-8.44,25.37Z"/>
  <rect class="cls-1" x="551.08" y="507.61" width="2.24" height="74.79"/>
  <path class="cls-1" d="M590.21,596.57h-68.28c-.57,0-1.09-.3-1.38-.79l-8.63-14.84c-.62-1.06.15-2.4,1.38-2.4h85.54c1.23,0,2,1.34,1.38,2.4l-8.63,14.84c-.29.49-.81.79-1.38.79Z"/>
  <path class="cls-2" d="M569.46,569.46h8.6v-44.83s-1.06,19.77-3.76,29.96-4.84,14.88-4.84,14.88Z"/>
  <rect class="cls-1" x="577.17" y="522.9" width="1.78" height="59.51"/>
  <path class="cls-2" d="M650.75,570.38h8.81v-57.67s-1.13,20.89-3.13,32.3c-2.54,14.5-5.68,25.37-5.68,25.37Z"/>
  <rect class="cls-1" x="658.45" y="507.61" width="2.24" height="74.79"/>
  <path class="cls-1" d="M697.58,596.57h-68.28c-.57,0-1.09-.3-1.38-.79l-8.63-14.84c-.62-1.06.15-2.4,1.38-2.4h85.54c1.23,0,2,1.34,1.38,2.4l-8.63,14.84c-.29.49-.81.79-1.38.79Z"/>
  <path class="cls-2" d="M679.61,569.46h5.82v-44.83s-.72,19.77-2.54,29.96c-1.83,10.19-3.28,14.88-3.28,14.88Z"/>
  <rect class="cls-1" x="684.54" y="522.9" width="1.78" height="59.51"/>
  <path class="cls-2" d="M762.12,570.38h4.82v-57.67s-.62,20.89-1.71,32.3c-1.39,14.5-3.11,25.37-3.11,25.37Z"/>
  <rect class="cls-1" x="765.82" y="507.61" width="2.24" height="74.79"/>
  <path class="cls-1" d="M804.96,596.57h-68.28c-.57,0-1.09-.3-1.38-.79l-8.63-14.84c-.62-1.06.15-2.4,1.38-2.4h85.54c1.23,0,2,1.34,1.38,2.4l-8.63,14.84c-.29.49-.81.79-1.38.79Z"/>
  <path class="cls-2" d="M789.63,569.46h3.17v-44.83s-.39,19.77-1.39,29.96c-1,10.19-1.79,14.88-1.79,14.88Z"/>
  <rect class="cls-1" x="791.91" y="522.9" width="1.78" height="59.51"/>
  <path class="cls-2" d="M877.54,570.38h-3.23v-57.67s.41,20.89,1.15,32.3c.93,14.5,2.08,25.37,2.08,25.37Z"/>
  <rect class="cls-1" x="873.2" y="507.61" width="2.24" height="74.79"/>
  <path class="cls-1" d="M912.33,596.57h-68.28c-.57,0-1.09-.3-1.38-.79l-8.63-14.84c-.62-1.06.15-2.4,1.38-2.4h85.54c1.23,0,2,1.34,1.38,2.4l-8.63,14.84c-.29.49-.81.79-1.38.79Z"/>
  <path class="cls-2" d="M903.97,569.46h-3.79v-44.83s.47,19.77,1.66,29.96,2.13,14.88,2.13,14.88Z"/>
  <rect class="cls-1" x="899.28" y="522.9" width="1.78" height="59.51"/>
  <path class="cls-2" d="M992.96,570.38h-11.27v-57.67s1.44,20.89,4,32.3c3.25,14.5,7.27,25.37,7.27,25.37Z"/>
  <rect class="cls-1" x="980.57" y="507.61" width="2.24" height="74.79"/>
  <path class="cls-1" d="M1019.7,596.57h-68.28c-.57,0-1.09-.3-1.38-.79l-8.63-14.84c-.62-1.06.15-2.4,1.38-2.4h85.54c1.23,0,2,1.34,1.38,2.4l-8.63,14.84c-.29.49-.81.79-1.38.79Z"/>
  <path class="cls-2" d="M1018.57,569.46h-11.03v-44.83s1.35,19.77,4.82,29.96,6.21,14.88,6.21,14.88Z"/>
  <rect class="cls-1" x="1006.66" y="522.9" width="1.78" height="59.51"/>
  <path class="cls-2" d="M1108.91,570.38h-19.85v-57.67s2.54,20.89,7.05,32.3c5.73,14.5,12.8,25.37,12.8,25.37Z"/>
  <rect class="cls-1" x="1087.94" y="507.61" width="2.24" height="74.79"/>
  <path class="cls-1" d="M1127.07,596.57h-68.28c-.57,0-1.09-.3-1.38-.79l-8.63-14.84c-.62-1.06.15-2.4,1.38-2.4h85.54c1.23,0,2,1.34,1.38,2.4l-8.63,14.84c-.29.49-.81.79-1.38.79Z"/>
  <path class="cls-2" d="M1135.07,569.46h-20.15v-44.83s2.47,19.77,8.81,29.96c6.33,10.19,11.34,14.88,11.34,14.88Z"/>
  <rect class="cls-1" x="1114.03" y="522.9" width="1.78" height="59.51"/>
</svg>