<?xml version="1.0" encoding="UTF-8"?>
<svg id="_레이어_1" data-name="레이어 1" xmlns="http://www.w3.org/2000/svg" viewBox="0 0 1280 720">
  <defs>
    <style>
      .cls-1 {
        fill: #052030;
      }

      .cls-2 {
        fill: #006aba;
      }
    </style>
  </defs>
  <g>
    <path class="cls-2" d="M164.21,580.87h43.76v-90.74s-5.6,32.86-15.54,50.82c-12.63,22.82-28.22,39.92-28.22,39.92Z"/>
    <rect class="cls-1" x="206.21" y="482.11" width="3.53" height="117.67"/>
    <path class="cls-1" d="M267.78,622.07h-107.42c-.89,0-1.72-.48-2.17-1.25l-13.58-23.35c-.97-1.68.23-3.78,2.17-3.78h134.58c1.94,0,3.15,2.1,2.17,3.78l-13.58,23.35c-.45.77-1.28,1.25-2.17,1.25Z"/>
    <path class="cls-2" d="M221.6,579.43h27.05v-70.54s-3.32,31.1-11.82,47.13c-8.5,16.03-15.23,23.41-15.23,23.41Z"/>
    <rect class="cls-1" x="247.25" y="506.16" width="2.81" height="93.62"/>
  </g>
  <g>
    <path class="cls-2" d="M349.54,576.88h29.65v-78.17s-3.8,28.31-10.53,43.78c-8.56,19.66-19.12,34.39-19.12,34.39Z"/>
    <rect class="cls-1" x="377.67" y="491.81" width="3.04" height="101.37"/>
    <path class="cls-1" d="M430.71,612.38h-92.54c-.77,0-1.48-.41-1.87-1.08l-11.7-20.12c-.84-1.44.2-3.25,1.87-3.25h115.94c1.67,0,2.71,1.81,1.87,3.25l-11.7,20.12c-.39.67-1.1,1.08-1.87,1.08Z"/>
    <path class="cls-2" d="M396.23,575.64h18v-60.77s-2.21,26.79-7.87,40.6c-5.66,13.81-10.14,20.16-10.14,20.16Z"/>
    <rect class="cls-1" x="413.03" y="512.52" width="2.42" height="80.66"/>
  </g>
  <g>
    <path class="cls-2" d="M513.33,573.3h36.99v-66.87s-4.74,24.22-13.14,37.45c-10.68,16.82-23.85,29.42-23.85,29.42Z"/>
    <rect class="cls-1" x="549.02" y="500.52" width="2.6" height="86.72"/>
    <path class="cls-1" d="M594.39,603.66h-79.16c-.66,0-1.27-.35-1.6-.92l-10.01-17.21c-.72-1.23.17-2.78,1.6-2.78h99.18c1.43,0,2.32,1.55,1.6,2.78l-10.01,17.21c-.33.57-.94.92-1.6.92Z"/>
    <path class="cls-2" d="M556.26,572.23h24.05v-51.98s-2.95,22.92-10.51,34.73c-7.56,11.81-13.54,17.25-13.54,17.25Z"/>
    <rect class="cls-1" x="579.27" y="518.24" width="2.07" height="69"/>
  </g>
  <g>
    <path class="cls-2" d="M675.33,580.87h43.76v-90.74s-5.6,32.86-15.54,50.82c-12.63,22.82-28.22,39.92-28.22,39.92Z"/>
    <rect class="cls-1" x="717.33" y="482.11" width="3.53" height="117.67"/>
    <path class="cls-1" d="M778.9,622.07h-107.42c-.89,0-1.72-.48-2.17-1.25l-13.58-23.35c-.97-1.68.23-3.78,2.17-3.78h134.58c1.94,0,3.15,2.1,2.17,3.78l-13.58,23.35c-.45.77-1.28,1.25-2.17,1.25Z"/>
    <path class="cls-2" d="M732.72,579.43h27.05v-70.54s-3.32,31.1-11.82,47.13c-8.5,16.03-15.23,23.41-15.23,23.41Z"/>
    <rect class="cls-1" x="758.37" y="506.16" width="2.81" height="93.62"/>
  </g>
  <g>
    <path class="cls-2" d="M863.45,574.9h27.27v-71.92s-3.49,26.05-9.69,40.28c-7.87,18.09-17.59,31.64-17.59,31.64Z"/>
    <rect class="cls-1" x="889.33" y="496.63" width="2.8" height="93.26"/>
    <path class="cls-1" d="M938.13,607.55h-85.14c-.71,0-1.36-.38-1.72-.99l-10.77-18.51c-.77-1.33.19-2.99,1.72-2.99h106.67c1.54,0,2.49,1.67,1.72,2.99l-10.77,18.51c-.36.61-1.01.99-1.72.99Z"/>
    <path class="cls-2" d="M906.41,573.76h16.56v-55.91s-2.03,24.65-7.24,37.36-9.32,18.55-9.32,18.55Z"/>
    <rect class="cls-1" x="921.86" y="515.69" width="2.22" height="74.2"/>
  </g>
  <g>
    <path class="cls-2" d="M1009.64,580.87h50.19v-90.74s-6.43,32.86-17.83,50.82c-14.49,22.82-32.36,39.92-32.36,39.92Z"/>
    <rect class="cls-1" x="1058.08" y="482.11" width="3.53" height="117.67"/>
    <path class="cls-1" d="M1119.64,622.07h-107.42c-.89,0-1.72-.48-2.17-1.25l-13.58-23.35c-.97-1.68.23-3.78,2.17-3.78h134.58c1.94,0,3.15,2.1,2.17,3.78l-13.58,23.35c-.45.77-1.28,1.25-2.17,1.25Z"/>
    <path class="cls-2" d="M1067.89,579.43h32.63v-70.54s-4.01,31.1-14.26,47.13c-10.25,16.03-18.37,23.41-18.37,23.41Z"/>
    <rect class="cls-1" x="1099.12" y="506.16" width="2.81" height="93.62"/>
  </g>
</svg>